<svg width="100" height="100" viewBox="0 0 100 100" fill="none" xmlns="http://www.w3.org/2000/svg">
<path opacity="0.2" d="M89.1016 47.3441L32.8906 12.9691C32.4174 12.6772 31.8749 12.5168 31.3191 12.5045C30.7633 12.4923 30.2142 12.6285 29.7286 12.8992C29.2429 13.1698 28.8383 13.5652 28.5564 14.0444C28.2745 14.5236 28.1256 15.0694 28.125 15.6253V84.3753C28.1256 84.9313 28.2745 85.4771 28.5564 85.9563C28.8383 86.4355 29.2429 86.8308 29.7286 87.1015C30.2142 87.3722 30.7633 87.5084 31.3191 87.4961C31.8749 87.4838 32.4174 87.3235 32.8906 87.0316L89.1016 52.6566C89.5631 52.3836 89.9456 51.9951 90.2113 51.5293C90.477 51.0636 90.6167 50.5366 90.6167 50.0003C90.6167 49.4641 90.477 48.9371 90.2113 48.4713C89.9456 48.0056 89.5631 47.617 89.1016 47.3441V47.3441Z" fill="#F8F9FA"/>
<path d="M89.1016 47.3441L32.8906 12.9691C32.4174 12.6772 31.8749 12.5168 31.3191 12.5045C30.7633 12.4923 30.2142 12.6285 29.7286 12.8992C29.2429 13.1698 28.8383 13.5652 28.5564 14.0444C28.2745 14.5236 28.1256 15.0694 28.125 15.6253V84.3753C28.1256 84.9313 28.2745 85.4771 28.5564 85.9563C28.8383 86.4355 29.2429 86.8308 29.7286 87.1015C30.2142 87.3722 30.7633 87.5084 31.3191 87.4961C31.8749 87.4838 32.4174 87.3235 32.8906 87.0316L89.1016 52.6566C89.5631 52.3836 89.9456 51.9951 90.2113 51.5293C90.477 51.0636 90.6167 50.5366 90.6167 50.0003C90.6167 49.4641 90.477 48.9371 90.2113 48.4713C89.9456 48.0056 89.5631 47.617 89.1016 47.3441V47.3441Z" stroke="#F8F9FA" stroke-width="12.5" stroke-linecap="round" stroke-linejoin="round"/>
</svg>
