<svg width="22" height="22" viewBox="0 0 22 22" fill="none" xmlns="http://www.w3.org/2000/svg">
<path d="M21.5 11C21.5 13.7848 20.3938 16.4555 18.4246 18.4246C16.4555 20.3938 13.7848 21.5 11 21.5C8.21523 21.5 5.54451 20.3938 3.57538 18.4246C1.60625 16.4555 0.5 13.7848 0.5 11C0.5 8.21523 1.60625 5.54451 3.57538 3.57538C5.54451 1.60625 8.21523 0.5 11 0.5C13.7848 0.5 16.4555 1.60625 18.4246 3.57538C20.3938 5.54451 21.5 8.21523 21.5 11ZM11 5.09375C11 4.9197 10.9309 4.75278 10.8078 4.62971C10.6847 4.50664 10.5178 4.4375 10.3438 4.4375C10.1697 4.4375 10.0028 4.50664 9.87971 4.62971C9.75664 4.75278 9.6875 4.9197 9.6875 5.09375V12.3125C9.68754 12.4282 9.71815 12.5418 9.77623 12.6418C9.83432 12.7418 9.91781 12.8248 10.0182 12.8821L14.612 15.5071C14.7628 15.5886 14.9394 15.6079 15.1042 15.5608C15.2689 15.5138 15.4088 15.4042 15.4938 15.2554C15.5788 15.1066 15.6023 14.9305 15.5591 14.7646C15.516 14.5988 15.4097 14.4564 15.263 14.3679L11 11.9319V5.09375Z" fill="#FCFCFC"/>
</svg>
