<svg width="73" height="73" viewBox="0 0 73 73" fill="none" xmlns="http://www.w3.org/2000/svg">
<g filter="url(#filter0_b_1394_4665)">
<rect width="73" height="73" rx="36.5" fill="#313036" fill-opacity="0.3"/>
<rect width="73" height="73" rx="36.5" fill="url(#paint0_linear_1394_4665)"/>
<path d="M38.47 34.325C41.23 34.775 43.345 35.81 44.815 37.43C46.285 39.02 47.02 41 47.02 43.37C47.02 45.2 46.54 46.895 45.58 48.455C44.62 49.985 43.15 51.215 41.17 52.145C39.22 53.075 36.82 53.54 33.97 53.54C31.75 53.54 29.56 53.255 27.4 52.685C25.27 52.085 23.455 51.245 21.955 50.165L24.79 44.585C25.99 45.485 27.37 46.19 28.93 46.7C30.52 47.18 32.14 47.42 33.79 47.42C35.62 47.42 37.06 47.075 38.11 46.385C39.16 45.665 39.685 44.66 39.685 43.37C39.685 40.79 37.72 39.5 33.79 39.5H30.46V34.685L36.94 27.35H23.53V21.5H45.58V26.225L38.47 34.325Z" fill="url(#paint1_linear_1394_4665)"/>
<rect x="1" y="1" width="71" height="71" rx="35.5" stroke="url(#paint2_linear_1394_4665)" stroke-width="2"/>
</g>
<defs>
<filter id="filter0_b_1394_4665" x="-4" y="-4" width="81" height="81" filterUnits="userSpaceOnUse" color-interpolation-filters="sRGB">
<feFlood flood-opacity="0" result="BackgroundImageFix"/>
<feGaussianBlur in="BackgroundImageFix" stdDeviation="2"/>
<feComposite in2="SourceAlpha" operator="in" result="effect1_backgroundBlur_1394_4665"/>
<feBlend mode="normal" in="SourceGraphic" in2="effect1_backgroundBlur_1394_4665" result="shape"/>
</filter>
<linearGradient id="paint0_linear_1394_4665" x1="3.59353" y1="4.0518" x2="36.5" y2="37.96" gradientUnits="userSpaceOnUse">
<stop stop-color="#B1B1B1" stop-opacity="0.32"/>
<stop offset="1" stop-color="#363567" stop-opacity="0.2"/>
</linearGradient>
<linearGradient id="paint1_linear_1394_4665" x1="35.5" y1="5" x2="35.5" y2="68" gradientUnits="userSpaceOnUse">
<stop stop-color="#FFD67F"/>
<stop offset="1" stop-color="#FFB359"/>
</linearGradient>
<linearGradient id="paint2_linear_1394_4665" x1="-15.3787" y1="-5.25924" x2="4.39882" y2="87.8886" gradientUnits="userSpaceOnUse">
<stop stop-color="white" stop-opacity="0.2"/>
<stop offset="1" stop-color="white" stop-opacity="0"/>
</linearGradient>
</defs>
</svg>
