<svg width="73" height="73" viewBox="0 0 73 73" fill="none" xmlns="http://www.w3.org/2000/svg">
<g filter="url(#filter0_b_1394_4642)">
<rect width="73" height="73" rx="36.5" fill="#313036" fill-opacity="0.3"/>
<rect width="73" height="73" rx="36.5" fill="url(#paint0_linear_1394_4642)"/>
<path d="M47.29 47.06V53H23.485V48.275L35.635 36.8C36.925 35.57 37.795 34.52 38.245 33.65C38.695 32.75 38.92 31.865 38.92 30.995C38.92 29.735 38.485 28.775 37.615 28.115C36.775 27.425 35.53 27.08 33.88 27.08C32.5 27.08 31.255 27.35 30.145 27.89C29.035 28.4 28.105 29.18 27.355 30.23L22.045 26.81C23.275 24.98 24.97 23.555 27.13 22.535C29.29 21.485 31.765 20.96 34.555 20.96C36.895 20.96 38.935 21.35 40.675 22.13C42.445 22.88 43.81 23.96 44.77 25.37C45.76 26.75 46.255 28.385 46.255 30.275C46.255 31.985 45.895 33.59 45.175 35.09C44.455 36.59 43.06 38.3 40.99 40.22L33.745 47.06H47.29Z" fill="url(#paint1_linear_1394_4642)"/>
<rect x="1" y="1" width="71" height="71" rx="35.5" stroke="url(#paint2_linear_1394_4642)" stroke-width="2"/>
</g>
<defs>
<filter id="filter0_b_1394_4642" x="-4" y="-4" width="81" height="81" filterUnits="userSpaceOnUse" color-interpolation-filters="sRGB">
<feFlood flood-opacity="0" result="BackgroundImageFix"/>
<feGaussianBlur in="BackgroundImageFix" stdDeviation="2"/>
<feComposite in2="SourceAlpha" operator="in" result="effect1_backgroundBlur_1394_4642"/>
<feBlend mode="normal" in="SourceGraphic" in2="effect1_backgroundBlur_1394_4642" result="shape"/>
</filter>
<linearGradient id="paint0_linear_1394_4642" x1="3.59353" y1="4.0518" x2="36.5" y2="37.96" gradientUnits="userSpaceOnUse">
<stop stop-color="#B1B1B1" stop-opacity="0.32"/>
<stop offset="1" stop-color="#363567" stop-opacity="0.2"/>
</linearGradient>
<linearGradient id="paint1_linear_1394_4642" x1="35.5" y1="5" x2="35.5" y2="68" gradientUnits="userSpaceOnUse">
<stop stop-color="#FFD67F"/>
<stop offset="1" stop-color="#FFB359"/>
</linearGradient>
<linearGradient id="paint2_linear_1394_4642" x1="-15.3787" y1="-5.25924" x2="4.39882" y2="87.8886" gradientUnits="userSpaceOnUse">
<stop stop-color="white" stop-opacity="0.2"/>
<stop offset="1" stop-color="white" stop-opacity="0"/>
</linearGradient>
</defs>
</svg>
