<svg width="73" height="73" viewBox="0 0 73 73" fill="none" xmlns="http://www.w3.org/2000/svg">
<g filter="url(#filter0_b_1394_4712)">
<rect width="73" height="73" rx="36.5" fill="#313036" fill-opacity="0.3"/>
<rect width="73" height="73" rx="36.5" fill="url(#paint0_linear_1394_4712)"/>
<path d="M34.555 33.335C38.995 33.335 42.265 34.22 44.365 35.99C46.495 37.76 47.56 40.13 47.56 43.1C47.56 45.02 47.08 46.775 46.12 48.365C45.16 49.925 43.69 51.185 41.71 52.145C39.76 53.075 37.345 53.54 34.465 53.54C32.245 53.54 30.055 53.255 27.895 52.685C25.765 52.085 23.95 51.245 22.45 50.165L25.33 44.585C26.53 45.485 27.91 46.19 29.47 46.7C31.03 47.18 32.635 47.42 34.285 47.42C36.115 47.42 37.555 47.06 38.605 46.34C39.655 45.62 40.18 44.615 40.18 43.325C40.18 41.975 39.625 40.955 38.515 40.265C37.435 39.575 35.545 39.23 32.845 39.23H24.79L26.41 21.5H45.625V27.35H32.485L31.99 33.335H34.555Z" fill="url(#paint1_linear_1394_4712)"/>
<rect x="1" y="1" width="71" height="71" rx="35.5" stroke="url(#paint2_linear_1394_4712)" stroke-width="2"/>
</g>
<defs>
<filter id="filter0_b_1394_4712" x="-4" y="-4" width="81" height="81" filterUnits="userSpaceOnUse" color-interpolation-filters="sRGB">
<feFlood flood-opacity="0" result="BackgroundImageFix"/>
<feGaussianBlur in="BackgroundImageFix" stdDeviation="2"/>
<feComposite in2="SourceAlpha" operator="in" result="effect1_backgroundBlur_1394_4712"/>
<feBlend mode="normal" in="SourceGraphic" in2="effect1_backgroundBlur_1394_4712" result="shape"/>
</filter>
<linearGradient id="paint0_linear_1394_4712" x1="3.59353" y1="4.0518" x2="36.5" y2="37.96" gradientUnits="userSpaceOnUse">
<stop stop-color="#B1B1B1" stop-opacity="0.32"/>
<stop offset="1" stop-color="#363567" stop-opacity="0.2"/>
</linearGradient>
<linearGradient id="paint1_linear_1394_4712" x1="35.5" y1="5" x2="35.5" y2="68" gradientUnits="userSpaceOnUse">
<stop stop-color="#FFD67F"/>
<stop offset="1" stop-color="#FFB359"/>
</linearGradient>
<linearGradient id="paint2_linear_1394_4712" x1="-15.3787" y1="-5.25924" x2="4.39882" y2="87.8886" gradientUnits="userSpaceOnUse">
<stop stop-color="white" stop-opacity="0.2"/>
<stop offset="1" stop-color="white" stop-opacity="0"/>
</linearGradient>
</defs>
</svg>
